<svg xmlns="http://www.w3.org/2000/svg" viewBox="0 0 96 96"><defs><style>.cls-1{fill:#fff;}.cls-2{fill:#ff8551;}</style></defs><g id="Layer_2" data-name="Layer 2"><g id="Layer_1-2" data-name="Layer 1"><circle class="cls-1" cx="48" cy="48" r="48"/><rect x="66.72" y="31.57" width="3.31" height="32.46" rx="1.65" transform="translate(-13.63 32.49) rotate(-24.38)"/><rect x="72.94" y="32.87" width="3.32" height="30.27" rx="1.65"/><rect x="60.71" y="32.87" width="3.32" height="30.27" rx="1.65" transform="translate(124.74 96) rotate(180)"/><path d="M43.27,58l.84.58c.86.55,1.35.53,1.63.25l18.1-23.26c.33-.84.22-1.42-.25-1.72l-1-.64a1.12,1.12,0,0,0-1.45.23L43,56.69A1,1,0,0,0,43.27,58Z"/><rect x="25.21" y="32.87" width="3.32" height="30.27" rx="1.65"/><path d="M46,58l-.22.83a2.15,2.15,0,0,1-2.25,0L25.39,35.56c-.33-.84-.21-1.42.26-1.72l1-.64a1.12,1.12,0,0,1,1.45.23l18.1,23.26C46.55,57.11,46.24,57.73,46,58Z"/><rect class="cls-2" x="25.69" y="21.04" width="2.35" height="14.27" rx="1.17" transform="translate(55.04 1.31) rotate(90)"/><rect class="cls-2" x="25.69" y="60.69" width="2.35" height="14.27" rx="1.17" transform="translate(94.69 40.96) rotate(90)"/></g></g></svg>